<svg width="1885" height="628" viewBox="0 0 1885 628" fill="none" xmlns="http://www.w3.org/2000/svg">
<rect x="8.72301" y="7.84947" width="1868.17" height="612.259" rx="86.3442" fill="black"/>
<rect x="8.72301" y="7.84947" width="1868.17" height="612.259" rx="86.3442" stroke="#A6A6A6" stroke-width="15.6989"/>
<path d="M280.39 305.528L127.872 471.061C127.886 471.091 127.886 471.135 127.9 471.164C132.585 489.138 148.629 502.366 167.681 502.366C175.302 502.366 182.45 500.257 188.581 496.565L189.068 496.272L360.74 394.975L280.39 305.528Z" fill="#EA4335"/>
<path d="M434.683 277.341L434.54 277.238L360.422 233.306L276.922 309.29L360.723 394.957L434.44 351.464C447.361 344.316 456.142 330.385 456.142 314.329C456.142 298.362 447.49 284.504 434.683 277.341Z" fill="#FBBC04"/>
<path d="M127.869 156.884C126.952 160.342 126.465 163.975 126.465 167.725V460.236C126.465 463.986 126.952 467.619 127.883 471.061L285.631 309.761L127.869 156.884Z" fill="#4285F4"/>
<path d="M281.516 313.977L360.447 233.276L188.977 131.612C182.745 127.789 175.468 125.591 167.69 125.591C148.637 125.591 132.565 138.849 127.88 156.838C127.88 156.852 127.866 156.867 127.866 156.882L281.516 313.977Z" fill="#34A853"/>
<path d="M685.505 176.845C685.505 192.544 680.847 205.051 671.533 214.366C661.067 225.46 647.304 231.007 630.244 231.007C613.917 231.007 600.102 225.355 588.799 214.052C577.496 202.748 571.844 188.829 571.844 172.292C571.844 155.756 577.496 141.837 588.799 130.533C600.102 119.23 613.917 113.578 630.244 113.578C638.512 113.578 646.31 115.044 653.636 117.974C660.962 120.905 666.98 125.039 671.689 130.376L661.328 140.738C657.874 136.551 653.374 133.307 647.827 131.004C642.385 128.597 636.524 127.394 630.244 127.394C617.999 127.394 607.638 131.632 599.16 140.11C590.788 148.692 586.601 159.419 586.601 172.292C586.601 185.166 590.788 195.893 599.16 204.475C607.638 212.953 617.999 217.191 630.244 217.191C641.443 217.191 650.758 214.052 658.188 207.772C665.619 201.493 669.91 192.858 671.062 181.869H630.244V168.368H684.72C685.243 171.298 685.505 174.124 685.505 176.845ZM768.675 116.09V129.905H717.496V165.542H763.651V179.043H717.496V214.68H768.675V228.495H703.053V116.09H768.675ZM826.446 129.905V228.495H812.002V129.905H780.605V116.09H857.843V129.905H826.446ZM921.858 228.495H907.415V116.09H921.858V228.495ZM982.822 129.905V228.495H968.379V129.905H936.981V116.09H1014.22V129.905H982.822ZM1170.77 172.292C1170.77 188.933 1165.23 202.853 1154.13 214.052C1142.94 225.355 1129.23 231.007 1113 231.007C1096.68 231.007 1082.97 225.355 1071.87 214.052C1060.78 202.853 1055.23 188.933 1055.23 172.292C1055.23 155.652 1060.78 141.732 1071.87 130.533C1082.97 119.23 1096.68 113.578 1113 113.578C1129.33 113.578 1143.04 119.282 1154.13 130.69C1165.23 141.889 1170.77 155.756 1170.77 172.292ZM1069.99 172.292C1069.99 185.27 1074.07 195.998 1082.23 204.475C1090.5 212.953 1100.76 217.191 1113 217.191C1125.25 217.191 1135.45 212.953 1143.62 204.475C1151.88 196.103 1156.02 185.375 1156.02 172.292C1156.02 159.21 1151.88 148.482 1143.62 140.11C1135.45 131.632 1125.25 127.394 1113 127.394C1100.76 127.394 1090.5 131.632 1082.23 140.11C1074.07 148.587 1069.99 159.315 1069.99 172.292ZM1202.26 228.495H1187.82V116.09H1205.4L1260.03 203.533H1260.66L1260.03 181.869V116.09H1274.48V228.495H1259.41L1202.26 136.813H1201.63L1202.26 158.477V228.495Z" fill="white"/>
<path d="M1469.01 494.711H1494.58V321.842H1469.01V494.711ZM1699.32 384.111L1670.01 459.061H1669.13L1638.71 384.111H1611.17L1656.79 488.862L1630.79 547.135H1657.45L1727.76 384.111H1699.32ZM1554.31 475.075C1545.93 475.075 1534.25 470.857 1534.25 460.389C1534.25 447.058 1548.79 441.942 1561.36 441.942C1572.59 441.942 1577.9 444.389 1584.72 447.722C1582.73 463.735 1569.07 475.075 1554.31 475.075ZM1557.4 380.336C1538.88 380.336 1519.7 388.564 1511.78 406.804L1534.47 416.359C1539.32 406.804 1548.35 403.679 1557.84 403.679C1571.06 403.679 1584.5 411.685 1584.72 425.929V427.699C1580.09 425.03 1570.18 421.033 1558.05 421.033C1533.59 421.033 1508.68 434.599 1508.68 459.946C1508.68 483.081 1528.74 497.988 1551.22 497.988C1568.41 497.988 1577.9 490.203 1583.84 481.076H1584.72V494.421H1609.4V428.141C1609.4 397.456 1586.71 380.336 1557.4 380.336ZM1399.37 405.158H1363V345.903H1399.37C1418.48 345.903 1429.34 361.875 1429.34 375.524C1429.34 388.924 1418.48 405.158 1399.37 405.158ZM1398.71 321.842H1337.44V494.711H1363V429.22H1398.71C1427.05 429.22 1454.91 408.505 1454.91 375.524C1454.91 342.543 1427.05 321.842 1398.71 321.842ZM1064.61 475.102C1046.94 475.102 1032.16 460.182 1032.16 439.688C1032.16 418.973 1046.94 403.817 1064.61 403.817C1082.05 403.817 1095.73 418.973 1095.73 439.688C1095.73 460.182 1082.05 475.102 1064.61 475.102ZM1093.97 393.791H1093.08C1087.34 386.891 1076.31 380.654 1062.4 380.654C1033.25 380.654 1006.55 406.486 1006.55 439.688C1006.55 472.655 1033.25 498.279 1062.4 498.279C1076.31 498.279 1087.34 492.042 1093.08 484.907H1093.97V493.384C1093.97 515.882 1082.05 527.913 1062.84 527.913C1047.16 527.913 1037.45 516.546 1033.47 506.963L1011.18 516.325C1017.58 531.923 1034.58 551.076 1062.84 551.076C1092.86 551.076 1118.26 533.251 1118.26 489.816V384.208H1093.97V393.791ZM1135.92 494.711H1161.53V321.828H1135.92V494.711ZM1199.27 437.683C1198.61 414.963 1216.72 403.374 1229.73 403.374C1239.9 403.374 1248.51 408.491 1251.37 415.848L1199.27 437.683ZM1278.75 418.074C1273.9 404.937 1259.1 380.654 1228.86 380.654C1198.83 380.654 1173.89 404.481 1173.89 439.467C1173.89 472.433 1198.61 498.279 1231.72 498.279C1258.44 498.279 1273.9 481.795 1280.3 472.212L1260.43 458.84C1253.81 468.645 1244.75 475.102 1231.72 475.102C1218.7 475.102 1209.43 469.087 1203.46 457.291L1281.4 424.753L1278.75 418.074ZM657.876 398.7V423.647H717.034C715.266 437.683 710.634 447.93 703.577 455.051C694.957 463.749 681.487 473.332 657.876 473.332C621.439 473.332 592.963 443.698 592.963 406.942C592.963 370.172 621.439 340.552 657.876 340.552C677.527 340.552 691.874 348.351 702.467 358.377L719.911 340.773C705.112 326.516 685.475 315.592 657.876 315.592C607.982 315.592 566.036 356.593 566.036 406.942C566.036 457.291 607.982 498.279 657.876 498.279C684.803 498.279 705.112 489.36 721.008 472.655C737.356 456.171 742.426 433.009 742.426 414.285C742.426 408.491 741.988 403.153 741.097 398.7H657.876ZM809.696 475.102C792.033 475.102 776.794 460.403 776.794 439.467C776.794 418.295 792.033 403.817 809.696 403.817C827.346 403.817 842.585 418.295 842.585 439.467C842.585 460.403 827.346 475.102 809.696 475.102ZM809.696 380.654C777.452 380.654 751.183 405.379 751.183 439.467C751.183 473.332 777.452 498.279 809.696 498.279C841.927 498.279 868.196 473.332 868.196 439.467C868.196 405.379 841.927 380.654 809.696 380.654ZM937.316 475.102C919.653 475.102 904.414 460.403 904.414 439.467C904.414 418.295 919.653 403.817 937.316 403.817C954.98 403.817 970.205 418.295 970.205 439.467C970.205 460.403 954.98 475.102 937.316 475.102ZM937.316 380.654C905.086 380.654 878.816 405.379 878.816 439.467C878.816 473.332 905.086 498.279 937.316 498.279C969.547 498.279 995.816 473.332 995.816 439.467C995.816 405.379 969.547 380.654 937.316 380.654Z" fill="white"/>
</svg>
