<svg width="183" height="366" viewBox="0 0 183 366" fill="none" xmlns="http://www.w3.org/2000/svg">
<path d="M173.266 0.920817C206.954 -0.461909 242.936 7.90144 271.308 23.6659C280.612 29.4245 272.834 43.0603 265.381 55.1L260.457 63.9733C260.118 64.5206 258.001 67.9409 254.092 69.2115C252.9 69.609 248.939 70.658 246.228 69.0751L239.095 66.0786C224 60.0466 211.217 54.4055 194.403 52.986C133.782 48.2005 78.558 84.2233 59.3095 141.001C34.4524 214.176 77.6622 292.488 152.316 310.218C168.382 313.917 181.893 314.712 197.073 312.659C195.854 312.945 213.099 309.238 218.937 336.033L220.566 343.948C222.169 351.753 217.179 359.356 209.401 361.069C171.199 369.593 146.351 364.336 115.718 352.377C100.128 346.227 70.9602 328.078 59.6304 317.186C40.5087 299.011 23.9209 275.213 14.5777 252.399C7.52785 235.357 0.35327 197.421 0.756393 180.261C2.21971 126.384 27.2928 75.4829 69.1617 41.3174C90.4317 23.9219 107.383 15.491 137.129 7.78911C153.442 3.59936 165.422 1.3642 173.266 0.920817Z" fill="url(#paint0_linear_13_351)"/>
<defs>
<linearGradient id="paint0_linear_13_351" x1="308.926" y1="193.959" x2="8.52588" y2="168.627" gradientUnits="userSpaceOnUse">
<stop offset="0.2849" stop-color="#20DEB2"/>
<stop offset="1" stop-color="#40FF78"/>
</linearGradient>
</defs>
</svg>
